<svg width="512" height="600" viewBox="0 0 512 600" fill="none" xmlns="http://www.w3.org/2000/svg">
<g filter="url(#filter0_dddd)">
<path d="M84 66C84 59.3726 89.3726 54 96 54H416C422.627 54 428 59.3726 428 66V474C428 480.627 422.627 486 416 486H96C89.3726 486 84 480.627 84 474V66Z" fill="white"/>
<path d="M175 86C175 81.5817 178.582 78 183 78H247C251.418 78 255 81.5817 255 86V110C255 114.418 251.418 118 247 118H183C178.582 118 175 114.418 175 110V86Z" fill="#F8F7FA"/>
<path d="M193.312 103L194.152 100.489H197.98L198.825 103H200.794L197.205 92.8182H194.928L191.343 103H193.312ZM194.649 99.0078L196.026 94.9062H196.106L197.483 99.0078H194.649ZM202.056 105.864H203.855V101.797H203.93C204.213 102.354 204.805 103.134 206.117 103.134C207.917 103.134 209.264 101.707 209.264 99.1918C209.264 96.6463 207.877 95.2642 206.112 95.2642C204.765 95.2642 204.203 96.0746 203.93 96.6264H203.825V95.3636H202.056V105.864ZM203.82 99.1818C203.82 97.7003 204.457 96.7408 205.615 96.7408C206.813 96.7408 207.43 97.7599 207.43 99.1818C207.43 100.614 206.803 101.658 205.615 101.658C204.467 101.658 203.82 100.663 203.82 99.1818ZM210.806 103H212.605V98.5107C212.605 97.5412 213.336 96.8551 214.325 96.8551C214.629 96.8551 215.007 96.9098 215.161 96.9595V95.304C214.997 95.2741 214.713 95.2543 214.514 95.2543C213.639 95.2543 212.909 95.7514 212.63 96.6364H212.551V95.3636H210.806V103ZM216.356 103H218.156V95.3636H216.356V103ZM217.261 94.2798C217.833 94.2798 218.3 93.8423 218.3 93.3054C218.3 92.7635 217.833 92.326 217.261 92.326C216.684 92.326 216.217 92.7635 216.217 93.3054C216.217 93.8423 216.684 94.2798 217.261 94.2798ZM221.806 92.8182H220.007V103H221.806V92.8182Z" fill="#7047EB"/>
<path d="M230.75 95.75L235 100.25L239.25 95.75" stroke="#7047EB" stroke-width="1.5" stroke-linecap="round" stroke-linejoin="round"/>
<path d="M271.905 103H278.885V101.459H274.45V101.389L276.205 99.6044C278.184 97.7053 278.731 96.7805 278.731 95.6321C278.731 93.9268 277.344 92.679 275.295 92.679C273.277 92.679 271.845 93.9318 271.845 95.8658H273.6C273.6 94.8267 274.256 94.1754 275.271 94.1754C276.24 94.1754 276.961 94.767 276.961 95.7266C276.961 96.5767 276.444 97.1832 275.44 98.2024L271.905 101.668V103ZM284.364 103.194C286.82 103.199 288.286 101.26 288.286 97.919C288.286 94.598 286.81 92.679 284.364 92.679C281.918 92.679 280.446 94.593 280.441 97.919C280.441 101.255 281.908 103.194 284.364 103.194ZM284.364 101.638C283.096 101.638 282.3 100.365 282.305 97.919C282.31 95.4929 283.101 94.2152 284.364 94.2152C285.631 94.2152 286.422 95.4929 286.427 97.919C286.427 100.365 285.636 101.638 284.364 101.638ZM289.938 103H296.918V101.459H292.483V101.389L294.238 99.6044C296.217 97.7053 296.764 96.7805 296.764 95.6321C296.764 93.9268 295.377 92.679 293.329 92.679C291.31 92.679 289.878 93.9318 289.878 95.8658H291.633C291.633 94.8267 292.29 94.1754 293.304 94.1754C294.273 94.1754 294.994 94.767 294.994 95.7266C294.994 96.5767 294.477 97.1832 293.473 98.2024L289.938 101.668V103ZM302.775 92.8182H301.02L298.489 94.4439V96.1342L300.871 94.6129H300.93V103H302.775V92.8182Z" fill="#19181A"/>
<g opacity="0.3">
<path d="M312.75 95.75L317 100.25L321.25 95.75" stroke="#19181A" stroke-width="1.5" stroke-linecap="round" stroke-linejoin="round"/>
</g>
<path d="M127.087 133.545V143H128.731V136.491H128.818L131.431 142.972H132.659L135.272 136.505H135.36V143H137.004V133.545H134.908L132.101 140.396H131.99L129.183 133.545H127.087ZM141.888 143.138C143.965 143.138 145.285 141.675 145.285 139.482C145.285 137.285 143.965 135.817 141.888 135.817C139.81 135.817 138.49 137.285 138.49 139.482C138.49 141.675 139.81 143.138 141.888 143.138ZM141.897 141.8C140.747 141.8 140.184 140.775 140.184 139.478C140.184 138.18 140.747 137.142 141.897 137.142C143.028 137.142 143.591 138.18 143.591 139.478C143.591 140.775 143.028 141.8 141.897 141.8Z" fill="#19181A"/>
<path d="M168.754 134.981H171.676V143H173.375V134.981H176.297V133.545H168.754V134.981ZM181.232 140.018C181.232 141.098 180.461 141.634 179.723 141.634C178.919 141.634 178.384 141.066 178.384 140.165V135.909H176.713V140.424C176.713 142.127 177.682 143.092 179.076 143.092C180.138 143.092 180.886 142.534 181.209 141.74H181.283V143H182.903V135.909H181.232V140.018Z" fill="#19181A"/>
<path d="M208.887 143H210.576L212.474 136.366H212.547L214.44 143H216.13L218.798 133.545H216.956L215.253 140.498H215.17L213.346 133.545H211.67L209.851 140.493H209.764L208.06 133.545H206.218L208.887 143ZM222.327 143.138C223.98 143.138 225.116 142.331 225.411 141.098L223.851 140.923C223.625 141.523 223.071 141.837 222.351 141.837C221.27 141.837 220.555 141.126 220.541 139.912H225.481V139.399C225.481 136.911 223.985 135.817 222.24 135.817C220.208 135.817 218.884 137.308 218.884 139.496C218.884 141.721 220.19 143.138 222.327 143.138ZM220.545 138.785C220.596 137.88 221.266 137.119 222.263 137.119C223.223 137.119 223.869 137.82 223.879 138.785H220.545Z" fill="#19181A"/>
<path d="M248.24 134.981H251.162V143H252.861V134.981H255.783V133.545H248.24V134.981ZM258.835 138.845C258.835 137.82 259.472 137.229 260.367 137.229C261.244 137.229 261.761 137.788 261.761 138.744V143H263.433V138.485C263.433 136.772 262.463 135.817 260.99 135.817C259.901 135.817 259.208 136.311 258.881 137.114H258.798V133.545H257.163V143H258.835V138.845Z" fill="#19181A"/>
<path d="M288.903 143H290.615V138.984H294.544V137.548H290.615V134.981H294.96V133.545H288.903V143ZM296.345 143H298.016V138.831C298.016 137.931 298.694 137.294 299.613 137.294C299.895 137.294 300.245 137.345 300.389 137.391V135.854C300.236 135.826 299.973 135.808 299.788 135.808C298.976 135.808 298.297 136.269 298.039 137.091H297.965V135.909H296.345V143ZM301.499 143H303.17V135.909H301.499V143ZM302.339 134.903C302.87 134.903 303.304 134.496 303.304 133.998C303.304 133.495 302.87 133.088 302.339 133.088C301.803 133.088 301.37 133.495 301.37 133.998C301.37 134.496 301.803 134.903 302.339 134.903Z" fill="#19181A"/>
<path d="M334.117 136.145H335.765C335.733 134.547 334.371 133.416 332.358 133.416C330.373 133.416 328.882 134.533 328.887 136.205C328.887 137.562 329.851 138.342 331.407 138.744L332.483 139.021C333.503 139.279 334.177 139.598 334.182 140.332C334.177 141.14 333.411 141.68 332.294 141.68C331.223 141.68 330.392 141.2 330.322 140.207H328.637C328.707 142.086 330.105 143.143 332.307 143.143C334.574 143.143 335.89 142.012 335.894 140.346C335.89 138.707 334.537 137.959 333.115 137.622L332.229 137.4C331.453 137.216 330.613 136.888 330.622 136.098C330.627 135.387 331.264 134.866 332.335 134.866C333.355 134.866 334.029 135.341 334.117 136.145ZM339.388 143.143C340.5 143.143 341.165 142.621 341.47 142.026H341.525V143H343.132V138.254C343.132 136.38 341.604 135.817 340.251 135.817C338.76 135.817 337.615 136.482 337.246 137.774L338.806 137.996C338.972 137.511 339.443 137.096 340.26 137.096C341.036 137.096 341.461 137.493 341.461 138.19V138.217C341.461 138.697 340.958 138.721 339.706 138.854C338.331 139.002 337.015 139.413 337.015 141.01C337.015 142.404 338.035 143.143 339.388 143.143ZM339.822 141.915C339.125 141.915 338.626 141.597 338.626 140.983C338.626 140.341 339.185 140.073 339.933 139.967C340.371 139.907 341.248 139.796 341.465 139.621V140.456C341.465 141.246 340.828 141.915 339.822 141.915Z" fill="#19181A"/>
<path d="M373.895 136.145H375.543C375.511 134.547 374.149 133.416 372.136 133.416C370.151 133.416 368.66 134.533 368.664 136.205C368.664 137.562 369.629 138.342 371.185 138.744L372.261 139.021C373.281 139.279 373.955 139.598 373.96 140.332C373.955 141.14 373.189 141.68 372.071 141.68C371 141.68 370.169 141.2 370.1 140.207H368.415C368.484 142.086 369.883 143.143 372.085 143.143C374.352 143.143 375.668 142.012 375.672 140.346C375.668 138.707 374.315 137.959 372.893 137.622L372.007 137.4C371.231 137.216 370.391 136.888 370.4 136.098C370.405 135.387 371.042 134.866 372.113 134.866C373.133 134.866 373.807 135.341 373.895 136.145ZM381.645 140.018C381.645 141.098 380.874 141.634 380.135 141.634C379.332 141.634 378.796 141.066 378.796 140.165V135.909H377.125V140.424C377.125 142.127 378.095 143.092 379.489 143.092C380.551 143.092 381.299 142.534 381.622 141.74H381.696V143H383.316V135.909H381.645V140.018Z" fill="#19181A"/>
<g opacity="0.4">
<path d="M128.987 183H134.951V181.984H130.557V181.911L132.68 179.639C134.305 177.899 134.785 177.086 134.785 176.038C134.785 174.58 133.603 173.416 131.942 173.416C130.284 173.416 129.024 174.543 129.024 176.205H130.113C130.113 175.129 130.811 174.413 131.905 174.413C132.929 174.413 133.714 175.041 133.714 176.038C133.714 176.911 133.202 177.557 132.108 178.753L128.987 182.169V183ZM139.868 173.416C137.948 173.393 136.71 174.838 136.71 176.574C136.71 178.402 138.058 179.713 139.683 179.713C140.662 179.713 141.493 179.233 142.01 178.457H142.084C142.084 180.784 141.179 182.114 139.72 182.114C138.723 182.114 138.114 181.486 137.911 180.618H136.784C137.006 182.114 138.132 183.129 139.72 183.129C141.844 183.129 143.155 181.246 143.155 177.885C143.155 174.413 141.419 173.435 139.868 173.416ZM139.868 174.432C141.05 174.432 141.918 175.447 141.918 176.555C141.918 177.682 140.994 178.697 139.831 178.697C138.668 178.697 137.818 177.756 137.818 176.574C137.818 175.392 138.705 174.432 139.868 174.432Z" fill="#19181A"/>
</g>
<g opacity="0.4">
<path d="M171.972 183.129C173.805 183.129 175.167 181.98 175.167 180.433C175.167 179.233 174.456 178.36 173.265 178.162V178.088C174.22 177.797 174.816 177.012 174.816 175.946C174.816 174.607 173.759 173.416 172.009 173.416C170.375 173.416 169.018 174.423 168.962 175.909H170.07C170.112 174.967 171.007 174.413 171.991 174.413C173.034 174.413 173.708 175.046 173.708 176.001C173.708 176.999 172.928 177.645 171.806 177.645H171.049V178.661H171.806C173.242 178.661 174.04 179.39 174.04 180.433C174.04 181.435 173.168 182.114 171.954 182.114C170.86 182.114 169.992 181.55 169.922 180.636H168.759C168.828 182.123 170.139 183.129 171.972 183.129ZM180.139 183.129C182.225 183.129 183.426 181.361 183.426 178.273C183.426 175.207 182.207 173.416 180.139 173.416C178.07 173.416 176.852 175.207 176.852 178.273C176.852 181.361 178.052 183.129 180.139 183.129ZM180.139 182.114C178.763 182.114 177.96 180.733 177.96 178.273C177.96 175.817 178.772 174.413 180.139 174.413C181.505 174.413 182.318 175.817 182.318 178.273C182.318 180.733 181.514 182.114 180.139 182.114Z" fill="#19181A"/>
</g>
<g opacity="0.4">
<path d="M213.013 183.129C214.846 183.129 216.208 181.98 216.208 180.433C216.208 179.233 215.497 178.36 214.306 178.162V178.088C215.261 177.797 215.857 177.012 215.857 175.946C215.857 174.607 214.8 173.416 213.05 173.416C211.416 173.416 210.059 174.423 210.003 175.909H211.111C211.153 174.967 212.048 174.413 213.032 174.413C214.075 174.413 214.749 175.046 214.749 176.001C214.749 176.999 213.969 177.645 212.847 177.645H212.09V178.661H212.847C214.283 178.661 215.081 179.39 215.081 180.433C215.081 181.435 214.209 182.114 212.995 182.114C211.901 182.114 211.033 181.55 210.963 180.636H209.8C209.869 182.123 211.18 183.129 213.013 183.129ZM221.42 173.545H220.275L217.911 175.115V176.278L220.219 174.746H220.275V183H221.42V173.545Z" fill="#19181A"/>
</g>
<path d="M257.281 173.545H256.136L253.773 175.115V176.278L256.081 174.746H256.136V183H257.281V173.545Z" fill="#19181A"/>
<path d="M276 178C276 166.954 284.954 158 296 158V158C307.046 158 316 166.954 316 178V178C316 189.046 307.046 198 296 198V198C284.954 198 276 189.046 276 178V178Z" fill="#F8F7FA"/>
<path d="M292.803 183H299.285V181.569H295.167V181.504L296.796 179.847C298.634 178.083 299.142 177.225 299.142 176.158C299.142 174.575 297.854 173.416 295.952 173.416C294.077 173.416 292.748 174.58 292.748 176.375H294.377C294.377 175.411 294.987 174.806 295.928 174.806C296.829 174.806 297.498 175.355 297.498 176.246C297.498 177.036 297.018 177.599 296.085 178.545L292.803 181.763V183Z" fill="#7047EB"/>
<path d="M336.035 183.129C337.867 183.129 339.229 181.98 339.229 180.433C339.229 179.233 338.518 178.36 337.327 178.162V178.088C338.283 177.797 338.878 177.012 338.878 175.946C338.878 174.607 337.821 173.416 336.072 173.416C334.437 173.416 333.08 174.423 333.025 175.909H334.133C334.174 174.967 335.07 174.413 336.053 174.413C337.096 174.413 337.77 175.046 337.77 176.001C337.77 176.999 336.99 177.645 335.868 177.645H335.111V178.661H335.868C337.304 178.661 338.103 179.39 338.103 180.433C338.103 181.435 337.23 182.114 336.016 182.114C334.922 182.114 334.054 181.55 333.985 180.636H332.822C332.891 182.123 334.202 183.129 336.035 183.129Z" fill="#19181A"/>
<path d="M372.587 181.061H377.037V183H378.126V181.061H379.419V180.045H378.126V173.545H376.742L372.587 180.119V181.061ZM377.037 180.045H373.824V179.972L376.963 175.004H377.037V180.045Z" fill="#19181A"/>
<path d="M135.979 223.129C137.779 223.129 139.099 221.8 139.099 219.99C139.099 218.157 137.825 216.814 136.089 216.814C135.452 216.814 134.834 217.04 134.446 217.349H134.391L134.723 214.561H138.675V213.545H133.763L133.19 218.199L134.261 218.328C134.654 218.047 135.323 217.843 135.905 217.848C137.11 217.857 137.991 218.771 137.991 220.009C137.991 221.223 137.142 222.114 135.979 222.114C135.009 222.114 134.238 221.49 134.151 220.636H133.043C133.112 222.077 134.354 223.129 135.979 223.129Z" fill="#19181A"/>
<path d="M176.062 223.129C177.973 223.152 179.219 221.712 179.219 219.953C179.219 218.125 177.867 216.814 176.246 216.814C175.272 216.814 174.437 217.289 173.92 218.07H173.846C173.85 215.766 174.746 214.432 176.209 214.432C177.207 214.432 177.807 215.06 178.019 215.909H179.146C178.915 214.441 177.798 213.416 176.209 213.416C174.081 213.416 172.775 215.3 172.775 218.642C172.775 222.137 174.511 223.111 176.062 223.129ZM176.062 222.114C174.875 222.114 174.007 221.103 174.012 219.972C174.017 218.841 174.926 217.83 176.099 217.83C177.257 217.83 178.111 218.781 178.111 219.953C178.111 221.153 177.22 222.114 176.062 222.114Z" fill="#19181A"/>
<path d="M213.561 223H214.761L218.971 214.616V213.545H212.914V214.561H217.789V214.635L213.561 223Z" fill="#19181A"/>
<path d="M256.002 223.129C257.89 223.129 259.206 222.026 259.215 220.489C259.206 219.293 258.407 218.277 257.387 218.088V218.033C258.273 217.802 258.855 216.934 258.864 215.928C258.855 214.487 257.645 213.416 256.002 213.416C254.34 213.416 253.13 214.487 253.14 215.928C253.13 216.934 253.712 217.802 254.617 218.033V218.088C253.578 218.277 252.779 219.293 252.789 220.489C252.779 222.026 254.095 223.129 256.002 223.129ZM256.002 222.114C254.705 222.114 253.906 221.449 253.915 220.433C253.906 219.367 254.788 218.605 256.002 218.605C257.197 218.605 258.079 219.367 258.088 220.433C258.079 221.449 257.28 222.114 256.002 222.114ZM256.002 217.626C254.968 217.626 254.238 216.98 254.247 216.001C254.238 215.041 254.94 214.413 256.002 214.413C257.045 214.413 257.747 215.041 257.756 216.001C257.747 216.98 257.017 217.626 256.002 217.626Z" fill="#19181A"/>
<path d="M295.932 213.416C294.012 213.393 292.775 214.838 292.775 216.574C292.775 218.402 294.123 219.713 295.748 219.713C296.727 219.713 297.557 219.233 298.075 218.457H298.148C298.148 220.784 297.244 222.114 295.785 222.114C294.788 222.114 294.178 221.486 293.975 220.618H292.849C293.07 222.114 294.197 223.129 295.785 223.129C297.908 223.129 299.219 221.246 299.219 217.885C299.219 214.413 297.484 213.435 295.932 213.416ZM295.932 214.432C297.114 214.432 297.982 215.447 297.982 216.555C297.982 217.682 297.059 218.697 295.896 218.697C294.732 218.697 293.883 217.756 293.883 216.574C293.883 215.392 294.769 214.432 295.932 214.432Z" fill="#19181A"/>
<path d="M333.219 213.545H332.074L329.71 215.115V216.278L332.018 214.746H332.074V223H333.219V213.545ZM339.021 223.129C341.108 223.129 342.308 221.361 342.308 218.273C342.308 215.207 341.09 213.416 339.021 213.416C336.953 213.416 335.735 215.207 335.735 218.273C335.735 221.361 336.935 223.129 339.021 223.129ZM339.021 222.114C337.646 222.114 336.843 220.733 336.843 218.273C336.843 215.817 337.655 214.413 339.021 214.413C340.388 214.413 341.2 215.817 341.2 218.273C341.2 220.733 340.397 222.114 339.021 222.114Z" fill="#19181A"/>
<path d="M374.26 213.545H373.115L370.751 215.115V216.278L373.059 214.746H373.115V223H374.26V213.545ZM380.303 213.545H379.158L376.794 215.115V216.278L379.102 214.746H379.158V223H380.303V213.545Z" fill="#19181A"/>
<path d="M133.346 253.545H132.201L129.837 255.115V256.278L132.145 254.746H132.201V263H133.346V253.545ZM136.065 263H142.029V261.984H137.634V261.911L139.758 259.639C141.383 257.899 141.863 257.086 141.863 256.038C141.863 254.58 140.681 253.416 139.019 253.416C137.362 253.416 136.102 254.543 136.102 256.205H137.191C137.191 255.129 137.888 254.413 138.982 254.413C140.007 254.413 140.792 255.041 140.792 256.038C140.792 256.911 140.279 257.557 139.185 258.753L136.065 262.169V263Z" fill="#19181A"/>
<path d="M173.142 253.545H171.998L169.634 255.115V256.278L171.942 254.746H171.998V263H173.142V253.545ZM179.056 263.129C180.889 263.129 182.251 261.98 182.251 260.433C182.251 259.233 181.54 258.36 180.349 258.162V258.088C181.304 257.797 181.9 257.012 181.9 255.946C181.9 254.607 180.843 253.416 179.093 253.416C177.459 253.416 176.102 254.423 176.046 255.909H177.154C177.196 254.967 178.091 254.413 179.075 254.413C180.118 254.413 180.792 255.046 180.792 256.001C180.792 256.999 180.012 257.645 178.89 257.645H178.133V258.661H178.89C180.326 258.661 181.124 259.39 181.124 260.433C181.124 261.435 180.252 262.114 179.038 262.114C177.944 262.114 177.076 261.55 177.006 260.636H175.843C175.912 262.123 177.223 263.129 179.056 263.129Z" fill="#19181A"/>
<path d="M213.111 253.545H211.966L209.602 255.115V256.278L211.91 254.746H211.966V263H213.111V253.545ZM215.608 261.061H220.058V263H221.148V261.061H222.441V260.045H221.148V253.545H219.763L215.608 260.119V261.061ZM220.058 260.045H216.845V259.972L219.985 255.004H220.058V260.045Z" fill="#19181A"/>
<path d="M253.326 253.545H252.182L249.818 255.115V256.278L252.126 254.746H252.182V263H253.326V253.545ZM259 263.129C260.801 263.129 262.121 261.8 262.121 259.99C262.121 258.157 260.847 256.814 259.111 256.814C258.474 256.814 257.855 257.04 257.467 257.349H257.412L257.744 254.561H261.696V253.545H256.784L256.212 258.199L257.283 258.328C257.675 258.047 258.345 257.843 258.926 257.848C260.131 257.857 261.013 258.771 261.013 260.009C261.013 261.223 260.163 262.114 259 262.114C258.031 262.114 257.26 261.49 257.172 260.636H256.064C256.133 262.077 257.375 263.129 259 263.129Z" fill="#19181A"/>
<path d="M293.225 253.545H292.08L289.716 255.115V256.278L292.025 254.746H292.08V263H293.225V253.545ZM299.083 263.129C300.994 263.152 302.241 261.712 302.241 259.953C302.241 258.125 300.888 256.814 299.268 256.814C298.294 256.814 297.458 257.289 296.941 258.07H296.867C296.872 255.766 297.768 254.432 299.231 254.432C300.228 254.432 300.828 255.06 301.041 255.909H302.167C301.936 254.441 300.819 253.416 299.231 253.416C297.103 253.416 295.796 255.3 295.796 258.642C295.796 262.137 297.532 263.111 299.083 263.129ZM299.083 262.114C297.897 262.114 297.029 261.103 297.034 259.972C297.038 258.841 297.948 257.83 299.12 257.83C300.279 257.83 301.133 258.781 301.133 259.953C301.133 261.153 300.242 262.114 299.083 262.114Z" fill="#19181A"/>
<path d="M333.568 253.545H332.423L330.059 255.115V256.278L332.367 254.746H332.423V263H333.568V253.545ZM336.582 263H337.783L341.993 254.616V253.545H335.936V254.561H340.811V254.635L336.582 263Z" fill="#19181A"/>
<path d="M373.276 253.545H372.131L369.767 255.115V256.278L372.075 254.746H372.131V263H373.276V253.545ZM379.023 263.129C380.911 263.129 382.227 262.026 382.236 260.489C382.227 259.293 381.428 258.277 380.408 258.088V258.033C381.295 257.802 381.876 256.934 381.885 255.928C381.876 254.487 380.667 253.416 379.023 253.416C377.361 253.416 376.152 254.487 376.161 255.928C376.152 256.934 376.733 257.802 377.638 258.033V258.088C376.6 258.277 375.801 259.293 375.81 260.489C375.801 262.026 377.117 263.129 379.023 263.129ZM379.023 262.114C377.726 262.114 376.927 261.449 376.937 260.433C376.927 259.367 377.809 258.605 379.023 258.605C380.219 258.605 381.101 259.367 381.11 260.433C381.101 261.449 380.302 262.114 379.023 262.114ZM379.023 257.626C377.989 257.626 377.26 256.98 377.269 256.001C377.26 255.041 377.961 254.413 379.023 254.413C380.067 254.413 380.768 255.041 380.777 256.001C380.768 256.98 380.039 257.626 379.023 257.626Z" fill="#19181A"/>
<path d="M133.225 293.545H132.08L129.716 295.115V296.278L132.025 294.746H132.08V303H133.225V293.545ZM138.954 293.416C137.034 293.393 135.796 294.838 135.796 296.574C135.796 298.402 137.144 299.713 138.769 299.713C139.748 299.713 140.579 299.233 141.096 298.457H141.17C141.17 300.784 140.265 302.114 138.806 302.114C137.809 302.114 137.2 301.486 136.997 300.618H135.87C136.092 302.114 137.218 303.129 138.806 303.129C140.93 303.129 142.241 301.246 142.241 297.885C142.241 294.413 140.505 293.435 138.954 293.416ZM138.954 294.432C140.136 294.432 141.004 295.447 141.004 296.555C141.004 297.682 140.08 298.697 138.917 298.697C137.754 298.697 136.904 297.756 136.904 296.574C136.904 295.392 137.791 294.432 138.954 294.432Z" fill="#19181A"/>
<path d="M168.981 303H174.945V301.984H170.55V301.911L172.674 299.639C174.299 297.899 174.779 297.086 174.779 296.038C174.779 294.58 173.597 293.416 171.935 293.416C170.278 293.416 169.018 294.543 169.018 296.205H170.107C170.107 295.129 170.804 294.413 171.898 294.413C172.923 294.413 173.708 295.041 173.708 296.038C173.708 296.911 173.195 297.557 172.101 298.753L168.981 302.169V303ZM179.936 303.129C182.022 303.129 183.222 301.361 183.222 298.273C183.222 295.207 182.004 293.416 179.936 293.416C177.867 293.416 176.649 295.207 176.649 298.273C176.649 301.361 177.849 303.129 179.936 303.129ZM179.936 302.114C178.56 302.114 177.757 300.733 177.757 298.273C177.757 295.817 178.569 294.413 179.936 294.413C181.302 294.413 182.115 295.817 182.115 298.273C182.115 300.733 181.311 302.114 179.936 302.114Z" fill="#19181A"/>
<path d="M210.022 303H215.986V301.984H211.591V301.911L213.715 299.639C215.34 297.899 215.82 297.086 215.82 296.038C215.82 294.58 214.638 293.416 212.976 293.416C211.319 293.416 210.059 294.543 210.059 296.205H211.148C211.148 295.129 211.845 294.413 212.939 294.413C213.964 294.413 214.749 295.041 214.749 296.038C214.749 296.911 214.237 297.557 213.142 298.753L210.022 302.169V303ZM221.217 293.545H220.072L217.708 295.115V296.278L220.016 294.746H220.072V303H221.217V293.545Z" fill="#19181A"/>
<path d="M249.108 303H255.072V301.984H250.677V301.911L252.801 299.639C254.426 297.899 254.906 297.086 254.906 296.038C254.906 294.58 253.724 293.416 252.062 293.416C250.405 293.416 249.145 294.543 249.145 296.205H250.234C250.234 295.129 250.931 294.413 252.025 294.413C253.05 294.413 253.835 295.041 253.835 296.038C253.835 296.911 253.322 297.557 252.228 298.753L249.108 302.169V303ZM256.979 303H262.943V301.984H258.548V301.911L260.672 299.639C262.297 297.899 262.777 297.086 262.777 296.038C262.777 294.58 261.595 293.416 259.933 293.416C258.276 293.416 257.016 294.543 257.016 296.205H258.105C258.105 295.129 258.802 294.413 259.896 294.413C260.921 294.413 261.706 295.041 261.706 296.038C261.706 296.911 261.194 297.557 260.099 298.753L256.979 302.169V303Z" fill="#19181A"/>
<path d="M288.904 303H294.869V301.984H290.474V301.911L292.598 299.639C294.223 297.899 294.703 297.086 294.703 296.038C294.703 294.58 293.521 293.416 291.859 293.416C290.202 293.416 288.941 294.543 288.941 296.205H290.031C290.031 295.129 290.728 294.413 291.822 294.413C292.847 294.413 293.632 295.041 293.632 296.038C293.632 296.911 293.119 297.557 292.025 298.753L288.904 302.169V303ZM299.97 303.129C301.803 303.129 303.165 301.98 303.165 300.433C303.165 299.233 302.454 298.36 301.263 298.162V298.088C302.218 297.797 302.814 297.012 302.814 295.946C302.814 294.607 301.757 293.416 300.007 293.416C298.373 293.416 297.016 294.423 296.96 295.909H298.068C298.11 294.967 299.005 294.413 299.989 294.413C301.032 294.413 301.706 295.046 301.706 296.001C301.706 296.999 300.926 297.645 299.804 297.645H299.047V298.661H299.804C301.24 298.661 302.038 299.39 302.038 300.433C302.038 301.435 301.166 302.114 299.952 302.114C298.858 302.114 297.99 301.55 297.92 300.636H296.757C296.826 302.123 298.137 303.129 299.97 303.129Z" fill="#19181A"/>
<path d="M328.974 303H334.939V301.984H330.544V301.911L332.667 299.639C334.292 297.899 334.773 297.086 334.773 296.038C334.773 294.58 333.591 293.416 331.929 293.416C330.272 293.416 329.011 294.543 329.011 296.205H330.101C330.101 295.129 330.798 294.413 331.892 294.413C332.917 294.413 333.702 295.041 333.702 296.038C333.702 296.911 333.189 297.557 332.095 298.753L328.974 302.169V303ZM336.421 301.061H340.871V303H341.96V301.061H343.253V300.045H341.96V293.545H340.576L336.421 300.119V301.061ZM340.871 300.045H337.658V299.972L340.797 295.004H340.871V300.045Z" fill="#19181A"/>
<path d="M369.089 303H375.053V301.984H370.658V301.911L372.782 299.639C374.407 297.899 374.887 297.086 374.887 296.038C374.887 294.58 373.705 293.416 372.043 293.416C370.386 293.416 369.125 294.543 369.125 296.205H370.215C370.215 295.129 370.912 294.413 372.006 294.413C373.031 294.413 373.816 295.041 373.816 296.038C373.816 296.911 373.303 297.557 372.209 298.753L369.089 302.169V303ZM379.914 303.129C381.715 303.129 383.035 301.8 383.035 299.99C383.035 298.157 381.761 296.814 380.025 296.814C379.388 296.814 378.769 297.04 378.382 297.349H378.326L378.659 294.561H382.61V293.545H377.698L377.126 298.199L378.197 298.328C378.589 298.047 379.259 297.843 379.84 297.848C381.045 297.857 381.927 298.771 381.927 300.009C381.927 301.223 381.078 302.114 379.914 302.114C378.945 302.114 378.174 301.49 378.086 300.636H376.978C377.047 302.077 378.289 303.129 379.914 303.129Z" fill="#19181A"/>
<path d="M128.987 343H134.951V341.984H130.557V341.911L132.68 339.639C134.305 337.899 134.785 337.086 134.785 336.038C134.785 334.58 133.603 333.416 131.942 333.416C130.284 333.416 129.024 334.543 129.024 336.205H130.113C130.113 335.129 130.811 334.413 131.905 334.413C132.929 334.413 133.714 335.041 133.714 336.038C133.714 336.911 133.202 337.557 132.108 338.753L128.987 342.169V343ZM139.997 343.129C141.909 343.152 143.155 341.712 143.155 339.953C143.155 338.125 141.802 336.814 140.182 336.814C139.208 336.814 138.372 337.289 137.855 338.07H137.781C137.786 335.766 138.682 334.432 140.145 334.432C141.142 334.432 141.742 335.06 141.955 335.909H143.081C142.85 334.441 141.733 333.416 140.145 333.416C138.017 333.416 136.71 335.3 136.71 338.642C136.71 342.137 138.446 343.111 139.997 343.129ZM139.997 342.114C138.811 342.114 137.943 341.103 137.948 339.972C137.952 338.841 138.862 337.83 140.034 337.83C141.193 337.83 142.047 338.781 142.047 339.953C142.047 341.153 141.156 342.114 139.997 342.114Z" fill="#19181A"/>
<path d="M156 338C156 326.954 164.954 318 176 318V318C187.046 318 196 326.954 196 338V338C196 349.046 187.046 358 176 358V358C164.954 358 156 349.046 156 338V338Z" fill="#7047EB"/>
<path d="M168.988 343H175.47V341.569H171.352V341.504L172.981 339.847C174.819 338.083 175.327 337.225 175.327 336.158C175.327 334.575 174.039 333.416 172.137 333.416C170.262 333.416 168.933 334.58 168.933 336.375H170.562C170.562 335.411 171.172 334.806 172.114 334.806C173.014 334.806 173.683 335.355 173.683 336.246C173.683 337.036 173.203 337.599 172.27 338.545L168.988 341.763V343ZM177.409 343H179.186L183.202 335.009V333.545H176.762V334.977H181.43V335.041L177.409 343Z" fill="white"/>
<path d="M209.038 343H215.002V341.984H210.607V341.911L212.731 339.639C214.356 337.899 214.836 337.086 214.836 336.038C214.836 334.58 213.654 333.416 211.992 333.416C210.335 333.416 209.075 334.543 209.075 336.205H210.164C210.164 335.129 210.861 334.413 211.955 334.413C212.98 334.413 213.765 335.041 213.765 336.038C213.765 336.911 213.253 337.557 212.159 338.753L209.038 342.169V343ZM219.937 343.129C221.825 343.129 223.141 342.026 223.15 340.489C223.141 339.293 222.342 338.277 221.322 338.088V338.033C222.209 337.802 222.79 336.934 222.799 335.928C222.79 334.487 221.581 333.416 219.937 333.416C218.275 333.416 217.066 334.487 217.075 335.928C217.066 336.934 217.648 337.802 218.552 338.033V338.088C217.514 338.277 216.715 339.293 216.724 340.489C216.715 342.026 218.031 343.129 219.937 343.129ZM219.937 342.114C218.64 342.114 217.841 341.449 217.851 340.433C217.841 339.367 218.723 338.605 219.937 338.605C221.133 338.605 222.015 339.367 222.024 340.433C222.015 341.449 221.216 342.114 219.937 342.114ZM219.937 337.626C218.903 337.626 218.174 336.98 218.183 336.001C218.174 335.041 218.875 334.413 219.937 334.413C220.981 334.413 221.682 335.041 221.692 336.001C221.682 336.98 220.953 337.626 219.937 337.626Z" fill="#19181A"/>
<path d="M248.987 343H254.951V341.984H250.557V341.911L252.68 339.639C254.305 337.899 254.785 337.086 254.785 336.038C254.785 334.58 253.603 333.416 251.942 333.416C250.284 333.416 249.024 334.543 249.024 336.205H250.113C250.113 335.129 250.811 334.413 251.905 334.413C252.929 334.413 253.714 335.041 253.714 336.038C253.714 336.911 253.202 337.557 252.108 338.753L248.987 342.169V343ZM259.868 333.416C257.948 333.393 256.71 334.838 256.71 336.574C256.71 338.402 258.058 339.713 259.683 339.713C260.662 339.713 261.493 339.233 262.01 338.457H262.084C262.084 340.784 261.179 342.114 259.72 342.114C258.723 342.114 258.114 341.486 257.911 340.618H256.784C257.006 342.114 258.132 343.129 259.72 343.129C261.844 343.129 263.155 341.246 263.155 337.885C263.155 334.413 261.419 333.435 259.868 333.416ZM259.868 334.432C261.05 334.432 261.918 335.447 261.918 336.555C261.918 337.682 260.994 338.697 259.831 338.697C258.668 338.697 257.818 337.756 257.818 336.574C257.818 335.392 258.705 334.432 259.868 334.432Z" fill="#19181A"/>
<path d="M291.972 343.129C293.805 343.129 295.167 341.98 295.167 340.433C295.167 339.233 294.456 338.36 293.265 338.162V338.088C294.22 337.797 294.816 337.012 294.816 335.946C294.816 334.607 293.759 333.416 292.009 333.416C290.375 333.416 289.018 334.423 288.962 335.909H290.07C290.112 334.967 291.007 334.413 291.991 334.413C293.034 334.413 293.708 335.046 293.708 336.001C293.708 336.999 292.928 337.645 291.806 337.645H291.049V338.661H291.806C293.242 338.661 294.04 339.39 294.04 340.433C294.04 341.435 293.168 342.114 291.954 342.114C290.86 342.114 289.992 341.55 289.922 340.636H288.759C288.828 342.123 290.139 343.129 291.972 343.129ZM300.139 343.129C302.225 343.129 303.426 341.361 303.426 338.273C303.426 335.207 302.207 333.416 300.139 333.416C298.07 333.416 296.852 335.207 296.852 338.273C296.852 341.361 298.052 343.129 300.139 343.129ZM300.139 342.114C298.763 342.114 297.96 340.733 297.96 338.273C297.96 335.817 298.772 334.413 300.139 334.413C301.505 334.413 302.318 335.817 302.318 338.273C302.318 340.733 301.514 342.114 300.139 342.114Z" fill="#19181A"/>
<g opacity="0.4">
<path d="M337.281 333.545H336.136L333.773 335.115V336.278L336.081 334.746H336.136V343H337.281V333.545Z" fill="#19181A"/>
</g>
<g opacity="0.4">
<path d="M373.043 343H379.008V341.984H374.613V341.911L376.736 339.639C378.361 337.899 378.841 337.086 378.841 336.038C378.841 334.58 377.66 333.416 375.998 333.416C374.34 333.416 373.08 334.543 373.08 336.205H374.17C374.17 335.129 374.867 334.413 375.961 334.413C376.986 334.413 377.77 335.041 377.77 336.038C377.77 336.911 377.258 337.557 376.164 338.753L373.043 342.169V343Z" fill="#19181A"/>
</g>
<g opacity="0.4">
<path d="M136.035 383.129C137.867 383.129 139.229 381.98 139.229 380.433C139.229 379.233 138.518 378.36 137.327 378.162V378.088C138.283 377.797 138.878 377.012 138.878 375.946C138.878 374.607 137.821 373.416 136.072 373.416C134.437 373.416 133.08 374.423 133.025 375.909H134.133C134.174 374.967 135.07 374.413 136.053 374.413C137.096 374.413 137.77 375.046 137.77 376.001C137.77 376.999 136.99 377.645 135.868 377.645H135.111V378.661H135.868C137.304 378.661 138.103 379.39 138.103 380.433C138.103 381.435 137.23 382.114 136.016 382.114C134.922 382.114 134.054 381.55 133.985 380.636H132.822C132.891 382.123 134.202 383.129 136.035 383.129Z" fill="#19181A"/>
</g>
<g opacity="0.4">
<path d="M172.587 381.061H177.037V383H178.126V381.061H179.419V380.045H178.126V373.545H176.742L172.587 380.119V381.061ZM177.037 380.045H173.824V379.972L176.963 375.004H177.037V380.045Z" fill="#19181A"/>
</g>
<g opacity="0.4">
<path d="M215.979 383.129C217.779 383.129 219.099 381.8 219.099 379.99C219.099 378.157 217.825 376.814 216.089 376.814C215.452 376.814 214.834 377.04 214.446 377.349H214.391L214.723 374.561H218.675V373.545H213.763L213.19 378.199L214.261 378.328C214.654 378.047 215.323 377.843 215.905 377.848C217.11 377.857 217.991 378.771 217.991 380.009C217.991 381.223 217.142 382.114 215.979 382.114C215.009 382.114 214.238 381.49 214.151 380.636H213.043C213.112 382.077 214.354 383.129 215.979 383.129Z" fill="#19181A"/>
</g>
<g opacity="0.4">
<path d="M256.062 383.129C257.973 383.152 259.219 381.712 259.219 379.953C259.219 378.125 257.867 376.814 256.246 376.814C255.272 376.814 254.437 377.289 253.92 378.07H253.846C253.85 375.766 254.746 374.432 256.209 374.432C257.207 374.432 257.807 375.06 258.019 375.909H259.146C258.915 374.441 257.798 373.416 256.209 373.416C254.081 373.416 252.775 375.3 252.775 378.642C252.775 382.137 254.511 383.111 256.062 383.129ZM256.062 382.114C254.875 382.114 254.007 381.103 254.012 379.972C254.017 378.841 254.926 377.83 256.099 377.83C257.257 377.83 258.111 378.781 258.111 379.953C258.111 381.153 257.22 382.114 256.062 382.114Z" fill="#19181A"/>
</g>
<g opacity="0.4">
<path d="M293.561 383H294.761L298.971 374.616V373.545H292.914V374.561H297.789V374.635L293.561 383Z" fill="#19181A"/>
</g>
<g opacity="0.4">
<path d="M336.002 383.129C337.89 383.129 339.206 382.026 339.215 380.489C339.206 379.293 338.407 378.277 337.387 378.088V378.033C338.273 377.802 338.855 376.934 338.864 375.928C338.855 374.487 337.645 373.416 336.002 373.416C334.34 373.416 333.13 374.487 333.14 375.928C333.13 376.934 333.712 377.802 334.617 378.033V378.088C333.578 378.277 332.779 379.293 332.789 380.489C332.779 382.026 334.095 383.129 336.002 383.129ZM336.002 382.114C334.705 382.114 333.906 381.449 333.915 380.433C333.906 379.367 334.788 378.605 336.002 378.605C337.197 378.605 338.079 379.367 338.088 380.433C338.079 381.449 337.28 382.114 336.002 382.114ZM336.002 377.626C334.968 377.626 334.238 376.98 334.247 376.001C334.238 375.041 334.94 374.413 336.002 374.413C337.045 374.413 337.747 375.041 337.756 376.001C337.747 376.98 337.017 377.626 336.002 377.626Z" fill="#19181A"/>
</g>
<g opacity="0.4">
<path d="M375.932 373.416C374.012 373.393 372.775 374.838 372.775 376.574C372.775 378.402 374.123 379.713 375.748 379.713C376.727 379.713 377.557 379.233 378.075 378.457H378.148C378.148 380.784 377.244 382.114 375.785 382.114C374.788 382.114 374.178 381.486 373.975 380.618H372.849C373.07 382.114 374.197 383.129 375.785 383.129C377.908 383.129 379.219 381.246 379.219 377.885C379.219 374.413 377.484 373.435 375.932 373.416ZM375.932 374.432C377.114 374.432 377.982 375.447 377.982 376.555C377.982 377.682 377.059 378.697 375.896 378.697C374.732 378.697 373.883 377.756 373.883 376.574C373.883 375.392 374.769 374.432 375.932 374.432Z" fill="#19181A"/>
</g>
<rect x="116" y="422" width="136" height="40" rx="8" fill="#F8F7FA"/>
<path d="M169.719 440.254C169.406 437.991 167.666 436.679 165.409 436.679C162.749 436.679 160.746 438.618 160.746 441.909C160.746 445.195 162.724 447.139 165.409 447.139C167.83 447.139 169.436 445.573 169.719 443.629L167.86 443.619C167.626 444.812 166.652 445.484 165.434 445.484C163.783 445.484 162.6 444.246 162.6 441.909C162.6 439.612 163.773 438.335 165.439 438.335C166.677 438.335 167.646 439.036 167.86 440.254H169.719ZM173.526 447.154C174.725 447.154 175.441 446.592 175.769 445.951H175.828V447H177.558V441.889C177.558 439.871 175.913 439.264 174.456 439.264C172.85 439.264 171.617 439.98 171.22 441.372L172.9 441.611C173.079 441.089 173.586 440.641 174.466 440.641C175.301 440.641 175.759 441.069 175.759 441.82V441.849C175.759 442.366 175.217 442.391 173.869 442.536C172.388 442.695 170.971 443.137 170.971 444.857C170.971 446.359 172.07 447.154 173.526 447.154ZM173.994 445.832C173.243 445.832 172.706 445.489 172.706 444.827C172.706 444.136 173.308 443.848 174.113 443.734C174.585 443.669 175.53 443.55 175.764 443.361V444.261C175.764 445.111 175.078 445.832 173.994 445.832ZM181.168 442.526C181.168 441.422 181.834 440.786 182.784 440.786C183.713 440.786 184.27 441.397 184.27 442.416V447H186.07V442.138C186.075 440.308 185.031 439.264 183.455 439.264C182.311 439.264 181.526 439.811 181.178 440.661H181.088V439.364H179.368V447H181.168V442.526ZM191.23 447.149C193.149 447.149 194.372 446.011 194.502 444.39H192.781C192.627 445.21 192.036 445.683 191.245 445.683C190.122 445.683 189.396 444.743 189.396 443.182C189.396 441.641 190.137 440.716 191.245 440.716C192.11 440.716 192.642 441.273 192.781 442.009H194.502C194.377 440.353 193.085 439.264 191.22 439.264C188.983 439.264 187.571 440.88 187.571 443.212C187.571 445.523 188.948 447.149 191.23 447.149ZM199.36 447.149C201.14 447.149 202.363 446.279 202.681 444.952L201.001 444.763C200.757 445.409 200.161 445.747 199.385 445.747C198.222 445.747 197.451 444.982 197.436 443.674H202.756V443.122C202.756 440.442 201.145 439.264 199.266 439.264C197.078 439.264 195.651 440.87 195.651 443.227C195.651 445.623 197.058 447.149 199.36 447.149ZM197.441 442.461C197.496 441.487 198.217 440.666 199.29 440.666C200.325 440.666 201.021 441.422 201.031 442.461H197.441ZM206.078 436.818H204.278V447H206.078V436.818Z" fill="#19181A"/>
<rect x="260" y="422" width="136" height="40" rx="8" fill="#7047EB"/>
<path d="M305.538 439.617H307.312C307.278 437.897 305.811 436.679 303.643 436.679C301.506 436.679 299.9 437.882 299.905 439.682C299.905 441.143 300.944 441.984 302.619 442.416L303.778 442.714C304.876 442.993 305.602 443.336 305.607 444.126C305.602 444.996 304.777 445.578 303.574 445.578C302.42 445.578 301.526 445.061 301.451 443.992H299.636C299.711 446.016 301.217 447.154 303.589 447.154C306.03 447.154 307.447 445.936 307.452 444.141C307.447 442.376 305.99 441.571 304.459 441.208L303.504 440.969C302.669 440.771 301.764 440.418 301.774 439.567C301.779 438.802 302.465 438.24 303.619 438.24C304.717 438.24 305.443 438.752 305.538 439.617ZM312.397 447.149C314.177 447.149 315.4 446.279 315.718 444.952L314.038 444.763C313.794 445.409 313.198 445.747 312.422 445.747C311.259 445.747 310.488 444.982 310.473 443.674H315.793V443.122C315.793 440.442 314.182 439.264 312.303 439.264C310.115 439.264 308.688 440.87 308.688 443.227C308.688 445.623 310.095 447.149 312.397 447.149ZM310.478 442.461C310.533 441.487 311.254 440.666 312.328 440.666C313.362 440.666 314.058 441.422 314.068 442.461H310.478ZM321.129 439.364H319.622V437.534H317.822V439.364H316.739V440.756H317.822V445.001C317.812 446.438 318.857 447.144 320.209 447.104C320.721 447.089 321.074 446.99 321.268 446.925L320.964 445.518C320.865 445.543 320.661 445.588 320.438 445.588C319.985 445.588 319.622 445.429 319.622 444.703V440.756H321.129V439.364ZM329.636 447C332.738 447 334.578 445.081 334.578 441.899C334.578 438.727 332.738 436.818 329.706 436.818H326.186V447H329.636ZM328.03 445.404V438.414H329.601C331.67 438.414 332.748 439.567 332.748 441.899C332.748 444.241 331.67 445.404 329.547 445.404H328.03ZM338.448 447.154C339.646 447.154 340.362 446.592 340.691 445.951H340.75V447H342.48V441.889C342.48 439.871 340.835 439.264 339.378 439.264C337.772 439.264 336.539 439.98 336.142 441.372L337.822 441.611C338.001 441.089 338.508 440.641 339.388 440.641C340.223 440.641 340.681 441.069 340.681 441.82V441.849C340.681 442.366 340.139 442.391 338.791 442.536C337.31 442.695 335.893 443.137 335.893 444.857C335.893 446.359 336.992 447.154 338.448 447.154ZM338.916 445.832C338.165 445.832 337.628 445.489 337.628 444.827C337.628 444.136 338.23 443.848 339.035 443.734C339.507 443.669 340.452 443.55 340.686 443.361V444.261C340.686 445.111 339.999 445.832 338.916 445.832ZM348.103 439.364H346.597V437.534H344.797V439.364H343.713V440.756H344.797V445.001C344.787 446.438 345.831 447.144 347.183 447.104C347.695 447.089 348.048 446.99 348.242 446.925L347.939 445.518C347.84 445.543 347.636 445.588 347.412 445.588C346.96 445.588 346.597 445.429 346.597 444.703V440.756H348.103V439.364ZM352.907 447.149C354.687 447.149 355.91 446.279 356.228 444.952L354.548 444.763C354.304 445.409 353.707 445.747 352.932 445.747C351.768 445.747 350.998 444.982 350.983 443.674H356.303V443.122C356.303 440.442 354.692 439.264 352.812 439.264C350.625 439.264 349.198 440.87 349.198 443.227C349.198 445.623 350.605 447.149 352.907 447.149ZM350.988 442.461C351.043 441.487 351.763 440.666 352.837 440.666C353.871 440.666 354.567 441.422 354.577 442.461H350.988Z" fill="white"/>
</g>
<defs>
<filter id="filter0_dddd" x="0" y="0" width="512" height="600" filterUnits="userSpaceOnUse" color-interpolation-filters="sRGB">
<feFlood flood-opacity="0" result="BackgroundImageFix"/>
<feColorMatrix in="SourceAlpha" type="matrix" values="0 0 0 0 0 0 0 0 0 0 0 0 0 0 0 0 0 0 127 0"/>
<feOffset dy="1"/>
<feGaussianBlur stdDeviation="1.5"/>
<feColorMatrix type="matrix" values="0 0 0 0 0.0745098 0 0 0 0 0.0392157 0 0 0 0 0.180392 0 0 0 0.13 0"/>
<feBlend mode="normal" in2="BackgroundImageFix" result="effect1_dropShadow"/>
<feColorMatrix in="SourceAlpha" type="matrix" values="0 0 0 0 0 0 0 0 0 0 0 0 0 0 0 0 0 0 127 0"/>
<feOffset dy="3"/>
<feGaussianBlur stdDeviation="7"/>
<feColorMatrix type="matrix" values="0 0 0 0 0.0745098 0 0 0 0 0.0392157 0 0 0 0 0.180392 0 0 0 0.03 0"/>
<feBlend mode="normal" in2="effect1_dropShadow" result="effect2_dropShadow"/>
<feColorMatrix in="SourceAlpha" type="matrix" values="0 0 0 0 0 0 0 0 0 0 0 0 0 0 0 0 0 0 127 0"/>
<feOffset dy="8"/>
<feGaussianBlur stdDeviation="16"/>
<feColorMatrix type="matrix" values="0 0 0 0 0.0745098 0 0 0 0 0.0392157 0 0 0 0 0.180392 0 0 0 0.07 0"/>
<feBlend mode="normal" in2="effect2_dropShadow" result="effect3_dropShadow"/>
<feColorMatrix in="SourceAlpha" type="matrix" values="0 0 0 0 0 0 0 0 0 0 0 0 0 0 0 0 0 0 127 0"/>
<feOffset dy="30"/>
<feGaussianBlur stdDeviation="42"/>
<feColorMatrix type="matrix" values="0 0 0 0 0.0745098 0 0 0 0 0.0392157 0 0 0 0 0.180392 0 0 0 0.08 0"/>
<feBlend mode="normal" in2="effect3_dropShadow" result="effect4_dropShadow"/>
<feBlend mode="normal" in="SourceGraphic" in2="effect4_dropShadow" result="shape"/>
</filter>
</defs>
</svg>
